# xmcd
#
# Track frame offsets:
#	150
#	11955
#	22977
#	33087
#	43737
#	55655
#	66145
#	76645
#	87287
#	97947
#	111760
#	124562
#	137322
#	151090
#	164157
#	173527
#	184907
#	195952
#	206622
#	217877
#
# Disc length: 3055 seconds
#
# Revision: 2
# Processed by: cddbd v1.5.1PL0 Copyright (c) Steve Scherf et al.
# Submitted via: EasyCDDAExtractor 8.2.1.1
#
DISCID=f10bed14
DTITLE=Patsy Cline - The Definitive Patsy Cline - Disc 2
DYEAR=1992
DGENRE=Country
TTITLE0=Sweet Dreams (Of You)
TTITLE1=Leavin' On Your Mind
TTITLE2=Strange
TTITLE3=Your Cheatin' Heart
TTITLE4=Today, Tomorrow And Forever
TTITLE5=I Love You, Honey
TTITLE6=Lovesick Blues
TTITLE7=I Don't Wanta
TTITLE8=Gotta Lot Of Rhythm In My Soul
TTITLE9=A Church, A Courtroom And Then Goodbye
TTITLE10=I Fall To Pieces
TTITLE11=When You Need A Laugh
TTITLE12=So Wrong
TTITLE13=Imagine That
TTITLE14=Blue Moon Of Kentucky
TTITLE15=That Wonderful Someone
TTITLE16=Stop The World (And Let Me Off)
TTITLE17=I Can See An Angel
TTITLE18=Dear God
TTITLE19=Cry Not For Me
EXTD=
EXTT0=
EXTT1=
EXTT2=
EXTT3=
EXTT4=
EXTT5=
EXTT6=
EXTT7=
EXTT8=
EXTT9=
EXTT10=
EXTT11=
EXTT12=
EXTT13=
EXTT14=
EXTT15=
EXTT16=
EXTT17=
EXTT18=
EXTT19=
PLAYORDER=
